<svg width="47" height="35" viewBox="0 0 47 35" fill="none" xmlns="http://www.w3.org/2000/svg">
<path d="M33.4853 34.0983L38.5962 34.0586C42.8237 34.0257 46.2373 30.7309 46.2061 26.7135L46.1684 21.8565C46.1372 17.8391 42.6728 14.5977 38.4453 14.6306L33.3344 14.6703C32.5139 14.6766 31.7393 14.8379 30.9993 15.0718C31.9852 9.34405 37.1703 4.9259 43.4808 4.87689C44.8933 4.86592 46.0279 3.77086 46.0175 2.42855C46.007 1.08623 44.8556 0.00892611 43.4431 0.0198966C33.5805 0.096497 25.614 7.78577 25.6868 17.1583L25.7623 26.8723C25.7935 30.8897 29.2578 34.1311 33.4853 34.0983ZM7.93049 34.2967L13.0414 34.257C17.2689 34.2242 20.6825 30.9294 20.6513 26.912L20.6136 22.055C20.5824 18.0376 17.118 14.7962 12.8906 14.8291L7.7796 14.8688C6.95912 14.8751 6.18448 15.0364 5.44448 15.2703C6.43043 9.54253 11.6156 5.12438 17.9261 5.07537C19.3386 5.0644 20.4731 3.96933 20.4627 2.62702C20.4523 1.28471 19.3008 0.207403 17.8883 0.218374C8.02573 0.294974 0.0592274 7.98425 0.132022 17.3568L0.207468 27.0708C0.23867 31.0882 3.70305 34.3296 7.93049 34.2967Z" fill="#CFD3D6" fill-opacity="0.5"/>
</svg>
