<svg width="229" height="196" viewBox="0 0 229 196" fill="none" xmlns="http://www.w3.org/2000/svg">
<path d="M116.22 49.46L115.09 67.91L90.41 56.19L116.22 49.46Z" fill="url(#paint0_linear_0_5850)"/>
<path d="M143.14 83.5302L115.09 67.9102L111.17 93.2902L143.14 83.5302Z" fill="url(#paint1_linear_0_5850)"/>
<path d="M207.09 160.99L197.56 138.2L212.14 129.74L207.09 160.99Z" fill="url(#paint2_linear_0_5850)"/>
<path d="M27.39 118.03L-0.64998 138.86L-5.69998 118.68L27.39 118.03Z" fill="url(#paint3_linear_0_5850)"/>
<path d="M43.66 83.5301L22.35 66.6101L9.43997 93.2901L43.66 83.5301Z" fill="url(#paint4_linear_0_5850)"/>
<path d="M44.22 142.11L27.39 118.03L45.91 99.1499L44.22 142.11Z" fill="url(#paint5_linear_0_5850)"/>
<path d="M62.92 131.7L61.8 103.71L45.91 99.1499L62.92 131.7Z" fill="url(#paint6_linear_0_5850)"/>
<path d="M86.48 99.1501L61.8 103.71L70.78 71.8101L86.48 99.1501Z" fill="url(#paint7_linear_0_5850)"/>
<path d="M210.46 195.48L207.09 160.99L228.97 174L210.46 195.48Z" fill="url(#paint8_linear_0_5850)"/>
<path d="M161.65 92.6401L158.85 124.54L186.34 118.68L161.65 92.6401Z" fill="url(#paint9_linear_0_5850)"/>
<path d="M12.25 52.07L-0.649995 64L11.13 41L12.25 52.07Z" fill="url(#paint10_linear_0_5850)"/>
<path d="M22.35 66.6101L12.25 52.0701L29.08 53.5901L22.35 66.6101Z" fill="url(#paint11_linear_0_5850)"/>
<path d="M60.12 36.45L29.64 26.03L29.08 53.59L60.12 36.45Z" fill="url(#paint12_linear_0_5850)"/>
<path d="M11.13 41L-7.95001 10.41L18.42 0L11.13 41Z" fill="url(#paint13_linear_0_5850)"/>
<path d="M90.41 56.1901L86.48 24.0801L70.78 48.1601L90.41 56.1901Z" fill="url(#paint14_linear_0_5850)"/>
<defs>
<linearGradient id="paint0_linear_0_5850" x1="121.77" y1="64.55" x2="106.588" y2="39.9013" gradientUnits="userSpaceOnUse">
<stop/>
<stop offset="1" stop-color="#ED1C24"/>
</linearGradient>
<linearGradient id="paint1_linear_0_5850" x1="137.63" y1="95.9302" x2="115.819" y2="64.0532" gradientUnits="userSpaceOnUse">
<stop/>
<stop offset="1" stop-color="#ED1C24"/>
</linearGradient>
<linearGradient id="paint2_linear_0_5850" x1="215.62" y1="156.06" x2="190.949" y2="143.333" gradientUnits="userSpaceOnUse">
<stop stop-color="#ED1C24"/>
<stop offset="1"/>
</linearGradient>
<linearGradient id="paint3_linear_0_5850" x1="32.38" y1="138.62" x2="14.2172" y2="106.654" gradientUnits="userSpaceOnUse">
<stop stop-color="#090909"/>
<stop offset="1" stop-color="#ED1C24"/>
</linearGradient>
<linearGradient id="paint4_linear_0_5850" x1="39.53" y1="95.8901" x2="16.7515" y2="62.0002" gradientUnits="userSpaceOnUse">
<stop stop-color="#ED1C24"/>
<stop offset="1" stop-color="#090909"/>
</linearGradient>
<linearGradient id="paint5_linear_0_5850" x1="50.01" y1="135.56" x2="18.33" y2="119.72" gradientUnits="userSpaceOnUse">
<stop offset="1" stop-color="#ED1C24"/>
</linearGradient>
<linearGradient id="paint6_linear_0_5850" x1="66.92" y1="124.49" x2="40.3127" y2="108.348" gradientUnits="userSpaceOnUse">
<stop stop-color="#ED1C24"/>
<stop offset="1"/>
</linearGradient>
<linearGradient id="paint7_linear_0_5850" x1="83.4" y1="106.49" x2="54.1694" y2="80.2422" gradientUnits="userSpaceOnUse">
<stop stop-color="#ED1C24"/>
<stop offset="1"/>
</linearGradient>
<linearGradient id="paint8_linear_0_5850" x1="227.85" y1="195.6" x2="197.489" y2="173.259" gradientUnits="userSpaceOnUse">
<stop/>
<stop offset="1" stop-color="#ED1C24"/>
</linearGradient>
<linearGradient id="paint9_linear_0_5850" x1="181.74" y1="128.99" x2="150.87" y2="99.5901" gradientUnits="userSpaceOnUse">
<stop stop-color="#ED1C24"/>
<stop offset="1"/>
</linearGradient>
<linearGradient id="paint10_linear_0_5850" x1="12.49" y1="62.99" x2="-7.86502" y2="49.74" gradientUnits="userSpaceOnUse">
<stop stop-color="#ED1C24"/>
<stop offset="1" stop-color="#090909"/>
</linearGradient>
<linearGradient id="paint11_linear_0_5850" x1="32.41" y1="64.6601" x2="18.74" y2="47.1719" gradientUnits="userSpaceOnUse">
<stop stop-color="#090909"/>
<stop offset="1" stop-color="#ED1C24"/>
</linearGradient>
<linearGradient id="paint12_linear_0_5850" x1="56.24" y1="54.31" x2="32.9501" y2="23.8682" gradientUnits="userSpaceOnUse">
<stop stop-color="#CCCCCC"/>
<stop offset="1" stop-color="#ED1C24"/>
</linearGradient>
<linearGradient id="paint13_linear_0_5850" x1="24.37" y1="33.72" x2="-11.8637" y2="6.68854" gradientUnits="userSpaceOnUse">
<stop/>
<stop offset="1" stop-color="#ED1C24"/>
</linearGradient>
<linearGradient id="paint14_linear_0_5850" x1="91.85" y1="53.8901" x2="62.9801" y2="34.3834" gradientUnits="userSpaceOnUse">
<stop stop-color="#090909"/>
<stop offset="1" stop-color="#ED1C24"/>
</linearGradient>
</defs>
</svg>
