<svg width="27" height="27" viewBox="0 0 27 27" fill="none" xmlns="http://www.w3.org/2000/svg">
<path d="M13.4934 5.78109L23.1967 0.478099C23.4309 0.352087 23.6981 0.300788 23.9624 0.331093C24.2267 0.361398 24.4754 0.471857 24.675 0.647629C24.8747 0.823401 25.0158 1.05607 25.0793 1.31437C25.1429 1.57267 25.1258 1.84423 25.0305 2.09258L21 12.3897C20.9312 12.5678 20.9018 12.7586 20.9139 12.9491C20.926 13.1397 20.9794 13.3253 21.0702 13.4932L26.3732 23.1965C26.4992 23.4307 26.5505 23.698 26.5202 23.9622C26.4899 24.2265 26.3794 24.4752 26.2037 24.6748C26.0279 24.8745 25.7952 25.0156 25.5369 25.0791C25.2786 25.1427 25.0071 25.1257 24.7587 25.0303L14.4616 20.9998C14.2835 20.931 14.0927 20.9016 13.9021 20.9137C13.7116 20.9259 13.526 20.9792 13.3581 21.07L3.65481 26.373C3.42055 26.499 3.15333 26.5503 2.88906 26.52C2.62479 26.4897 2.37612 26.3793 2.17646 26.2035C1.9768 26.0277 1.83572 25.795 1.77217 25.5367C1.70862 25.2784 1.72564 25.0069 1.82095 24.7585L5.85148 14.4614C5.92031 14.2833 5.94967 14.0925 5.93755 13.902C5.92543 13.7114 5.87211 13.5258 5.78128 13.3579L0.478285 3.65463C0.352272 3.42036 0.300973 3.15315 0.331278 2.88887C0.361584 2.6246 0.472042 2.37593 0.647814 2.17627C0.823586 1.97662 1.05625 1.83553 1.31455 1.77198C1.57286 1.70843 1.84442 1.72545 2.09276 1.82076L12.3899 5.8513C12.5679 5.92012 12.7588 5.94949 12.9493 5.93737C13.1398 5.92525 13.3255 5.87193 13.4934 5.78109V5.78109Z" fill="white"/>
</svg>
